<svg xmlns="http://www.w3.org/2000/svg" viewBox="0 0 1200 600" opacity="0.12">
  <style>
    .land { fill: #8ab4f8; stroke: none; }
  </style>
  <!-- North America -->
  <path class="land" d="M120,80 L180,60 L220,70 L260,55 L300,65 L320,80 L310,100 L330,110 L340,130 L320,140 L300,135 L280,150 L260,170 L240,180 L230,200 L210,210 L200,230 L180,240 L170,260 L160,250 L150,230 L140,210 L130,200 L120,180 L110,160 L100,140 L90,120 L100,100 Z"/>
  <!-- Greenland -->
  <path class="land" d="M310,30 L350,25 L380,35 L390,55 L375,70 L350,75 L330,65 L315,50 Z"/>
  <!-- South America -->
  <path class="land" d="M200,280 L220,270 L240,275 L260,290 L270,310 L275,340 L280,370 L275,400 L265,430 L250,450 L235,470 L225,485 L220,490 L215,480 L210,460 L200,440 L195,420 L190,400 L185,370 L180,340 L185,310 L190,295 Z"/>
  <!-- Europe -->
  <path class="land" d="M480,60 L510,55 L540,50 L560,55 L570,70 L580,85 L575,100 L560,110 L540,115 L520,120 L500,115 L485,105 L475,90 L470,75 Z"/>
  <!-- British Isles -->
  <path class="land" d="M455,65 L465,60 L470,70 L465,80 L455,75 Z"/>
  <!-- Scandinavia -->
  <path class="land" d="M520,20 L535,15 L545,25 L550,40 L545,55 L535,50 L525,40 L520,30 Z"/>
  <!-- Africa -->
  <path class="land" d="M480,150 L520,140 L560,145 L590,160 L610,180 L620,210 L625,240 L620,280 L610,320 L595,350 L575,380 L555,400 L540,410 L525,400 L510,380 L500,350 L490,320 L485,290 L480,260 L475,230 L470,200 L475,170 Z"/>
  <!-- Madagascar -->
  <path class="land" d="M630,330 L640,320 L645,340 L640,360 L630,355 Z"/>
  <!-- Asia (Russia/North) -->
  <path class="land" d="M590,40 L640,30 L700,25 L760,20 L820,25 L880,30 L940,35 L1000,40 L1040,50 L1060,65 L1040,80 L1000,90 L960,85 L920,80 L880,75 L840,80 L800,85 L760,80 L720,75 L680,70 L640,65 L610,60 L595,55 Z"/>
  <!-- Middle East -->
  <path class="land" d="M590,110 L620,100 L650,105 L670,115 L680,130 L670,145 L650,150 L630,145 L610,140 L600,125 Z"/>
  <!-- India -->
  <path class="land" d="M700,130 L730,120 L750,130 L760,150 L755,175 L745,200 L730,220 L715,230 L705,220 L700,200 L695,175 L690,155 L695,140 Z"/>
  <!-- Southeast Asia -->
  <path class="land" d="M780,140 L810,130 L830,140 L840,160 L835,180 L820,190 L800,185 L785,170 L780,155 Z"/>
  <!-- China/East Asia -->
  <path class="land" d="M780,80 L830,75 L870,80 L910,90 L940,100 L950,115 L940,130 L920,140 L890,145 L860,140 L830,130 L800,120 L785,105 Z"/>
  <!-- Japan -->
  <path class="land" d="M960,90 L970,85 L980,90 L985,105 L978,115 L968,110 L960,100 Z"/>
  <!-- Indonesia -->
  <path class="land" d="M810,210 L840,205 L870,210 L890,215 L880,225 L855,230 L830,225 L810,220 Z"/>
  <path class="land" d="M900,220 L930,215 L950,220 L945,230 L920,235 L900,230 Z"/>
  <!-- Australia -->
  <path class="land" d="M880,310 L920,290 L960,285 L1000,290 L1030,300 L1050,320 L1055,350 L1045,380 L1025,400 L1000,410 L970,405 L940,395 L920,375 L905,350 L895,330 Z"/>
  <!-- New Zealand -->
  <path class="land" d="M1080,380 L1090,375 L1095,390 L1090,405 L1080,400 Z"/>
  <path class="land" d="M1085,410 L1092,408 L1095,420 L1088,425 Z"/>
  <!-- Antarctica hint -->
  <path class="land" d="M200,560 L400,550 L600,545 L800,548 L1000,555 L1100,565 L1000,575 L800,580 L600,578 L400,575 L200,570 Z"/>
  <!-- Iceland -->
  <path class="land" d="M420,35 L435,30 L445,38 L438,48 L425,45 Z"/>
  <!-- Philippines -->
  <path class="land" d="M860,165 L868,160 L872,170 L868,180 L860,178 Z"/>
  <!-- Sri Lanka -->
  <path class="land" d="M720,235 L728,230 L732,240 L726,248 Z"/>
  <!-- Taiwan -->
  <path class="land" d="M880,135 L886,130 L890,138 L885,145 Z"/>
  <!-- Korea -->
  <path class="land" d="M900,90 L910,85 L915,95 L912,108 L905,105 Z"/>
</svg>
